<svg width="21" height="17" viewBox="0 0 21 17" fill="none" xmlns="http://www.w3.org/2000/svg">
<path fill-rule="evenodd" clip-rule="evenodd" d="M6.71091 8.81111C6.04182 8.036 5.5 6.58889 5.5 5.57556V4.05556C5.5 3.11256 5.88312 2.20819 6.56507 1.5414C7.24702 0.874602 8.17194 0.5 9.13636 0.5C10.1008 0.5 11.0257 0.874602 11.7077 1.5414C12.3896 2.20819 12.7727 3.11256 12.7727 4.05556V5.57556C12.7727 6.58889 12.2273 8.04044 11.5618 8.81289L11.2336 9.19333C10.6973 9.81467 10.8645 10.6049 11.6145 10.9622L16.76 13.4173C17.3191 13.684 17.7727 14.3889 17.7727 15.0022V15.6129C17.7722 15.8485 17.6761 16.0743 17.5055 16.2406C17.3349 16.4069 17.1037 16.5002 16.8627 16.5H1.40909C1.1683 16.5 0.937344 16.4066 0.766909 16.2403C0.596473 16.074 0.500482 15.8483 0.5 15.6129V15.0022C0.5 14.3933 0.952727 13.684 1.51273 13.4164L6.65818 10.9613C7.40455 10.6058 7.57818 9.81644 7.04 9.19244L6.71091 8.81111ZM1.59091 15.4333H16.6818V15.0022C16.6818 14.7987 16.4682 14.4644 16.2818 14.3756L11.1364 11.9222C9.74818 11.26 9.40546 9.65911 10.4 8.50622L10.7273 8.12578C11.2291 7.54445 11.6818 6.33556 11.6818 5.57645V4.05556C11.6818 2.68222 10.5418 1.56667 9.13636 1.56667C8.46149 1.56737 7.81446 1.82982 7.33725 2.29642C6.86004 2.76303 6.59163 3.39568 6.59091 4.05556V5.57556C6.59091 6.33644 7.04182 7.54 7.54545 8.12311L7.87273 8.50445C8.87 9.65911 8.52273 11.2591 7.13636 11.9204L1.99091 14.3756C1.80636 14.4636 1.59091 14.8013 1.59091 15.0022V15.4333ZM16.7727 7.52222V4.94444H17.8636V7.52222H20.5V8.58889H17.8636V11.1667H16.7727V8.58889H14.1364V7.52222H16.7727Z" fill="white" stroke="white" stroke-width="0.5"/>
</svg>
