<svg width="22" height="18" viewBox="0 0 22 18" fill="none" xmlns="http://www.w3.org/2000/svg">
<path fill-rule="evenodd" clip-rule="evenodd" d="M7.21091 9.31111C6.54182 8.536 6 7.08889 6 6.07556V4.55556C6 3.61256 6.38312 2.70819 7.06507 2.0414C7.74702 1.3746 8.67194 1 9.63636 1C10.6008 1 11.5257 1.3746 12.2077 2.0414C12.8896 2.70819 13.2727 3.61256 13.2727 4.55556V6.07556C13.2727 7.08889 12.7273 8.54044 12.0618 9.31289L11.7336 9.69333C11.1973 10.3147 11.3645 11.1049 12.1145 11.4622L17.26 13.9173C17.8191 14.184 18.2727 14.8889 18.2727 15.5022V16.1129C18.2722 16.3485 18.1761 16.5743 18.0055 16.7406C17.8349 16.9069 17.6037 17.0002 17.3627 17H1.90909C1.6683 17 1.43734 16.9066 1.26691 16.7403C1.09647 16.574 1.00048 16.3483 1 16.1129V15.5022C1 14.8933 1.45273 14.184 2.01273 13.9164L7.15818 11.4613C7.90455 11.1058 8.07818 10.3164 7.54 9.69244L7.21091 9.31111ZM2.09091 15.9333H17.1818V15.5022C17.1818 15.2987 16.9682 14.9644 16.7818 14.8756L11.6364 12.4222C10.2482 11.76 9.90546 10.1591 10.9 9.00622L11.2273 8.62578C11.7291 8.04445 12.1818 6.83556 12.1818 6.07645V4.55556C12.1818 3.18222 11.0418 2.06667 9.63636 2.06667C8.96149 2.06737 8.31446 2.32982 7.83725 2.79642C7.36004 3.26303 7.09163 3.89568 7.09091 4.55556V6.07556C7.09091 6.83644 7.54182 8.04 8.04545 8.62311L8.37273 9.00445C9.37 10.1591 9.02273 11.7591 7.63636 12.4204L2.49091 14.8756C2.30636 14.9636 2.09091 15.3013 2.09091 15.5022V15.9333ZM17.2727 8.02222V5.44444H18.3636V8.02222H21V9.08889H18.3636V11.6667H17.2727V9.08889H14.6364V8.02222H17.2727Z" fill="url(#paint0_linear_35_211)" stroke="url(#paint1_linear_35_211)" stroke-width="0.5"/>
<defs>
<linearGradient id="paint0_linear_35_211" x1="1" y1="9" x2="24.7757" y2="10.8451" gradientUnits="userSpaceOnUse">
<stop offset="0.302885" stop-color="#405B16"/>
<stop offset="1" stop-color="#5C7B2A"/>
</linearGradient>
<linearGradient id="paint1_linear_35_211" x1="1" y1="9" x2="24.7757" y2="10.8451" gradientUnits="userSpaceOnUse">
<stop offset="0.302885" stop-color="#405B16"/>
<stop offset="1" stop-color="#5C7B2A"/>
</linearGradient>
</defs>
</svg>
