<svg width="32" height="32" viewBox="0 0 32 32" fill="none" xmlns="http://www.w3.org/2000/svg">
<path d="M3.69371 32C2.64076 32 1.76229 31.6395 1.05829 30.9186C0.354285 30.1976 0.00152381 29.2972 0 28.2174V23.7162C0 23.3838 0.108953 23.106 0.326857 22.8829C0.544762 22.6597 0.816762 22.5474 1.14286 22.5458C1.46895 22.5443 1.74095 22.6566 1.95886 22.8829C2.17676 23.1092 2.28571 23.3869 2.28571 23.7162V28.2174C2.28571 28.5779 2.432 28.9087 2.72457 29.2099C3.01714 29.511 3.33943 29.6608 3.69143 29.6593H28.3086C28.659 29.6593 28.9813 29.5095 29.2754 29.2099C29.5695 28.9102 29.7158 28.5794 29.7143 28.2174V23.7162C29.7143 23.3838 29.8232 23.106 30.0411 22.8829C30.259 22.6597 30.531 22.5474 30.8571 22.5458C31.1832 22.5443 31.4552 22.6566 31.6731 22.8829C31.8911 23.1092 32 23.3869 32 23.7162V28.2174C32 29.2957 31.648 30.1953 30.944 30.9162C30.24 31.6372 29.3608 31.9984 28.3063 32H3.69371ZM14.8571 3.74047L10.352 8.35403C10.1295 8.58186 9.86514 8.70124 9.55886 8.71216C9.25257 8.72309 8.97371 8.59903 8.72229 8.33999C8.47848 8.08251 8.35429 7.80709 8.34971 7.51371C8.34514 7.21878 8.46933 6.94258 8.72229 6.6851L14.7063 0.55241C14.9074 0.349548 15.1116 0.206764 15.3189 0.124058C15.5276 0.0413527 15.7547 0 16 0C16.2453 0 16.4724 0.0413527 16.6811 0.124058C16.8899 0.206764 17.0941 0.350328 17.2937 0.554751L23.2777 6.6851C23.5017 6.91293 23.619 7.18133 23.6297 7.49031C23.6389 7.79928 23.5223 8.08251 23.28 8.33999C23.0271 8.59903 22.755 8.73089 22.464 8.73557C22.173 8.74025 21.901 8.61307 21.648 8.35403L17.1429 3.74047V22.8174C17.1429 23.1513 17.0339 23.4298 16.816 23.653C16.5981 23.8761 16.3261 23.9877 16 23.9877C15.6739 23.9877 15.4019 23.8761 15.184 23.653C14.9661 23.4298 14.8571 23.1513 14.8571 22.8174V3.74047Z" fill="#333333"/>
</svg>
