<svg width="18" height="18" viewBox="0 0 18 18" fill="none" xmlns="http://www.w3.org/2000/svg">
<path d="M6.66672 12.3255C5.08599 12.3255 3.74618 11.7767 2.64731 10.6791C1.5491 9.58209 1 8.24332 1 6.66276C1 5.08219 1.5491 3.74309 2.64731 2.64546C3.74552 1.54783 5.08533 0.999342 6.66672 1C8.24812 1.00066 9.58759 1.54948 10.6851 2.64645C11.7827 3.74342 12.3318 5.08219 12.3325 6.66276C12.3325 7.34927 12.2108 8.01371 11.9676 8.65608C11.7244 9.29846 11.4046 9.84793 11.0085 10.3045L16.8512 16.1422C16.9435 16.2344 16.9929 16.3481 16.9995 16.4831C17.0055 16.6169 16.956 16.7365 16.8512 16.8419C16.7457 16.9473 16.6291 17 16.5012 17C16.3733 17 16.2566 16.9473 16.1511 16.8419L10.3094 11.0032C9.81501 11.4242 9.24646 11.75 8.60375 11.9806C7.96104 12.2112 7.31504 12.3265 6.66574 12.3265M6.66574 11.3382C7.97752 11.3382 9.08529 10.8869 9.98904 9.98431C10.8921 9.0817 11.3437 7.97451 11.3437 6.66276C11.3437 5.351 10.8925 4.24414 9.99003 3.34219C9.0876 2.44023 7.98016 1.98892 6.66771 1.98826C5.35527 1.98826 4.2475 2.43957 3.34441 3.34219C2.44132 4.2448 1.98944 5.35166 1.98878 6.66276C1.98813 7.97385 2.43967 9.08071 3.34342 9.98332C4.24717 10.8859 5.35461 11.3372 6.66574 11.3372" fill="url(#paint0_linear_36_32)"/>
<path d="M6.66672 12.3255C5.08599 12.3255 3.74618 11.7767 2.64731 10.6791C1.5491 9.58209 1 8.24332 1 6.66276C1 5.08219 1.5491 3.74309 2.64731 2.64546C3.74552 1.54783 5.08533 0.999342 6.66672 1C8.24812 1.00066 9.58759 1.54948 10.6851 2.64645C11.7827 3.74342 12.3318 5.08219 12.3325 6.66276C12.3325 7.34927 12.2108 8.01371 11.9676 8.65608C11.7244 9.29846 11.4046 9.84793 11.0085 10.3045L16.8512 16.1422C16.9435 16.2344 16.9929 16.3481 16.9995 16.4831C17.0055 16.6169 16.956 16.7365 16.8512 16.8419C16.7457 16.9473 16.6291 17 16.5012 17C16.3733 17 16.2566 16.9473 16.1511 16.8419L10.3094 11.0032C9.81501 11.4242 9.24646 11.75 8.60375 11.9806C7.96104 12.2112 7.31504 12.3265 6.66574 12.3265M6.66574 11.3382C7.97752 11.3382 9.08529 10.8869 9.98904 9.98431C10.8921 9.0817 11.3437 7.97451 11.3437 6.66276C11.3437 5.351 10.8925 4.24414 9.99003 3.34219C9.0876 2.44023 7.98016 1.98892 6.66771 1.98826C5.35527 1.98826 4.2475 2.43957 3.34441 3.34219C2.44132 4.2448 1.98944 5.35166 1.98878 6.66276C1.98813 7.97385 2.43967 9.08071 3.34342 9.98332C4.24717 10.8859 5.35461 11.3372 6.66574 11.3372" stroke="url(#paint1_linear_36_32)"/>
<defs>
<linearGradient id="paint0_linear_36_32" x1="1" y1="9" x2="20.0617" y2="10.1834" gradientUnits="userSpaceOnUse">
<stop offset="0.302885" stop-color="#405B16"/>
<stop offset="1" stop-color="#5C7B2A"/>
</linearGradient>
<linearGradient id="paint1_linear_36_32" x1="1" y1="9" x2="20.0617" y2="10.1834" gradientUnits="userSpaceOnUse">
<stop offset="0.302885" stop-color="#405B16"/>
<stop offset="1" stop-color="#5C7B2A"/>
</linearGradient>
</defs>
</svg>
