<svg width="17" height="17" viewBox="0 0 17 17" fill="none" xmlns="http://www.w3.org/2000/svg">
<path d="M6.16672 11.8255C4.58599 11.8255 3.24618 11.2767 2.14731 10.1791C1.0491 9.08209 0.5 7.74332 0.5 6.16276C0.5 4.58219 1.0491 3.24309 2.14731 2.14546C3.24552 1.04783 4.58533 0.499342 6.16672 0.500001C7.74812 0.500659 9.08759 1.04948 10.1851 2.14645C11.2827 3.24342 11.8318 4.58219 11.8325 6.16276C11.8325 6.84927 11.7108 7.51371 11.4676 8.15608C11.2244 8.79846 10.9046 9.34793 10.5085 9.80451L16.3512 15.6422C16.4435 15.7344 16.4929 15.8481 16.4995 15.9831C16.5055 16.1169 16.456 16.2365 16.3512 16.3419C16.2457 16.4473 16.1291 16.5 16.0012 16.5C15.8733 16.5 15.7566 16.4473 15.6511 16.3419L9.80941 10.5032C9.31501 10.9242 8.74646 11.25 8.10375 11.4806C7.46104 11.7112 6.81504 11.8265 6.16574 11.8265M6.16574 10.8382C7.47752 10.8382 8.58529 10.3869 9.48904 9.48431C10.3921 8.5817 10.8437 7.47451 10.8437 6.16276C10.8437 4.851 10.3925 3.74414 9.49003 2.84219C8.5876 1.94023 7.48016 1.48892 6.16771 1.48826C4.85527 1.48826 3.7475 1.93957 2.84441 2.84219C1.94132 3.7448 1.48944 4.85166 1.48878 6.16276C1.48813 7.47385 1.93967 8.58071 2.84342 9.48332C3.74717 10.3859 4.85461 10.8372 6.16574 10.8372" fill="white"/>
<path d="M6.16672 11.8255C4.58599 11.8255 3.24618 11.2767 2.14731 10.1791C1.0491 9.08209 0.5 7.74332 0.5 6.16276C0.5 4.58219 1.0491 3.24309 2.14731 2.14546C3.24552 1.04783 4.58533 0.499342 6.16672 0.500001C7.74812 0.500659 9.08759 1.04948 10.1851 2.14645C11.2827 3.24342 11.8318 4.58219 11.8325 6.16276C11.8325 6.84927 11.7108 7.51371 11.4676 8.15608C11.2244 8.79846 10.9046 9.34793 10.5085 9.80451L16.3512 15.6422C16.4435 15.7344 16.4929 15.8481 16.4995 15.9831C16.5055 16.1169 16.456 16.2365 16.3512 16.3419C16.2457 16.4473 16.1291 16.5 16.0012 16.5C15.8733 16.5 15.7566 16.4473 15.6511 16.3419L9.80941 10.5032C9.31501 10.9242 8.74646 11.25 8.10375 11.4806C7.46104 11.7112 6.81504 11.8265 6.16574 11.8265M6.16574 10.8382C7.47752 10.8382 8.58529 10.3869 9.48904 9.48431C10.3921 8.5817 10.8437 7.47451 10.8437 6.16276C10.8437 4.851 10.3925 3.74414 9.49003 2.84219C8.5876 1.94023 7.48016 1.48892 6.16771 1.48826C4.85527 1.48826 3.7475 1.93957 2.84441 2.84219C1.94132 3.7448 1.48944 4.85166 1.48878 6.16276C1.48813 7.47385 1.93967 8.58071 2.84342 9.48332C3.74717 10.3859 4.85461 10.8372 6.16574 10.8372" stroke="white"/>
</svg>
